<svg xmlns="http://www.w3.org/2000/svg" version="1.1" xmlns:xlink="http://www.w3.org/1999/xlink" xmlns:svgjs="http://svgjs.com/svgjs" width="1440" height="560" preserveAspectRatio="none" viewBox="0 0 1440 560"><g mask="url(&quot;#SvgjsMask1023&quot;)" fill="none"><rect width="1440" height="560" x="0" y="0" fill="rgba(38, 176, 221, 1)"></rect><path d="M1464 560L0 560 L0 330.1Q15.45 273.56, 72 289.01Q113.09 258.1, 144 299.18Q191.86 275.04, 216 322.9Q246.38 281.27, 288 311.65Q371.05 274.69, 408 357.74Q473.57 303.31, 528 368.89Q551.34 272.23, 648 295.56Q725.29 252.85, 768 330.14Q850.06 292.2, 888 374.26Q908.87 275.13, 1008 296Q1053.05 269.05, 1080 314.1Q1147.05 309.14, 1152 376.19Q1165.31 269.5, 1272 282.8Q1313.97 252.77, 1344 294.74Q1442.19 272.94, 1464 371.13z" fill="rgba(16, 78, 97, 1)"></path><path d="M1488 560L0 560 L0 410.24Q26.22 364.46, 72 390.68Q131.15 377.83, 144 436.97Q147.69 368.66, 216 372.35Q269.31 305.66, 336 358.97Q422.05 325.02, 456 411.08Q510.84 345.92, 576 400.76Q597.34 350.1, 648 371.44Q699.77 303.22, 768 354.99Q867.94 334.94, 888 434.88Q897.25 372.13, 960 381.37Q989.91 339.28, 1032 369.19Q1112.73 329.92, 1152 410.65Q1218.22 356.88, 1272 423.1Q1291.53 370.63, 1344 390.16Q1365.37 339.52, 1416 360.89Q1458.82 331.71, 1488 374.53z" fill="rgba(12, 102, 139, 1)"></path><path d="M1560 560L0 560 L0 435.4Q58.7 374.1, 120 432.79Q163.53 404.32, 192 447.85Q262.18 446.03, 264 516.2Q284.57 464.77, 336 485.34Q360.93 438.26, 408 463.19Q451.38 386.56, 528 429.94Q570.44 400.38, 600 442.83Q662.56 433.38, 672 495.94Q718.61 470.55, 744 517.17Q786.65 439.82, 864 482.48Q908.75 407.24, 984 451.99Q1029.8 425.78, 1056 471.58Q1067.53 411.11, 1128 422.63Q1196.22 370.85, 1248 439.07Q1307.54 426.61, 1320 486.14Q1395.39 441.53, 1440 516.92Q1451.98 408.9, 1560 420.88z" fill="rgba(53, 144, 177, 1)"></path><path d="M1488 560L0 560 L0 543.03Q49.08 520.11, 72 569.18Q104.94 482.12, 192 515.05Q236.7 487.75, 264 532.44Q314.48 510.92, 336 561.4Q366.35 519.75, 408 550.1Q450.82 472.92, 528 515.75Q557.86 473.61, 600 503.46Q685.67 469.13, 720 554.8Q786.76 501.56, 840 568.32Q845.06 501.38, 912 506.45Q977.13 451.59, 1032 516.72Q1103.03 515.75, 1104 586.77Q1139 501.77, 1224 536.77Q1238.4 479.17, 1296 493.57Q1338.56 464.13, 1368 506.68Q1456.18 474.86, 1488 563.04z" fill="rgba(196, 251, 255, 1)"></path></g><defs><mask id="SvgjsMask1023"><rect width="1440" height="560" fill="#ffffff"></rect></mask></defs></svg>