<svg xmlns="http://www.w3.org/2000/svg" version="1.1" xmlns:xlink="http://www.w3.org/1999/xlink" xmlns:svgjs="http://svgjs.com/svgjs" width="1920" height="1024" preserveAspectRatio="none" viewBox="0 0 1920 1024"><g mask="url(&quot;#SvgjsMask1011&quot;)" fill="none"><rect width="1920" height="1024" x="0" y="0" fill="rgba(255, 140, 193, 1)"></rect><path d="M93.09 256C114.6 153.61 12.86 72.62 59.08 0C94.32 -55.38 157.54 0 256 0C384 0 384 0 512 0C640 0 640 0 768 0C854.26 0 869.37 -30.49 940.52 0C997.37 24.36 986.74 109.71 1024 109.71C1057.57 109.71 1032.82 21.16 1082.18 0C1160.82 -33.7 1181.09 0 1280 0C1408 0 1408 0 1536 0C1664 0 1664 0 1792 0C1871.51 0 1935.08 -47.85 1951.03 0C1977.75 80.15 1870.14 130.25 1877.33 256C1884.78 386.25 1969.4 380.93 1980.32 512C1990.73 636.93 1928.78 638.59 1920 768C1911.42 894.59 1985.67 943.85 1945.6 1024C1921.67 1071.85 1868.8 1024 1792 1024C1664 1024 1664 1024 1536 1024C1408 1024 1408 1024 1280 1024C1274.66 1024 1274.41 1025.6 1269.33 1024C1146.41 985.27 1145.93 943.34 1024 943.34C914.23 943.34 915.98 989.33 805.93 1024C787.98 1029.66 786.96 1024 768 1024C640 1024 640 1024 512 1024C384 1024 384 1024 256 1024C219.43 1024 216.59 1036.05 182.86 1024C88.59 990.33 50.65 1003.49 0 932.57C-40.78 875.49 0 850.29 0 768C0 640 0 640 0 512C0 396.64 -32.82 371.54 0 281.28C13.72 243.54 85.06 294.25 93.09 256" stroke="rgba(255, 255, 255, 1)" stroke-width="2"></path><path d="M512 703.3C471.08 703.3 438.4 726.86 438.4 768C438.4 851.21 464.7 952 512 952C565.5 952 640 843.83 640 768C640 719.48 571.88 703.3 512 703.3" stroke="rgba(255, 255, 255, 1)" stroke-width="2"></path><path d="M1536 747.52C1524.23 747.52 1519.75 756.02 1519.75 768C1519.75 798.26 1515.83 832 1536 832C1570.5 832 1629.09 790.91 1629.09 768C1629.09 748.67 1578.9 747.52 1536 747.52" stroke="rgba(255, 255, 255, 1)" stroke-width="2"></path><path d="M256 205.71C184.72 109.97 129.41 67.49 129.41 0C129.41 -35.37 192.7 0 256 0C384 0 384 0 512 0C640 0 640 0 768 0C784.69 0 801.39 -10.12 801.39 0C801.39 21.88 783.7 31.51 768 64C721.83 159.51 677.65 169.18 677.65 256C677.65 305.6 713.22 332.87 768 336.84C886.39 345.42 900.99 265.37 1024 281.1C1156.99 298.1 1150.53 398.28 1280 402.29C1406.53 406.21 1404.26 310.84 1536 296.96C1660.26 283.86 1687 287.43 1792 348.33C1872.38 394.95 1906.76 429.26 1906.76 512C1906.76 598.68 1873.87 663.42 1792 687.16C1688.49 717.18 1644.93 595.96 1536 619.52C1458.01 636.38 1479.81 696.1 1418.16 768C1351.81 845.37 1366 898.94 1280 918.07C1168.92 942.78 1149.83 893.97 1024 855.67C903.31 818.93 904.41 813.95 786.96 768C776.41 763.87 778.18 760.51 768 755.51C640.7 693 631.03 629.34 512 632.97C426.23 635.59 426.35 692.63 358.4 768C298.35 834.62 316.6 916.95 256 916.95C180.06 916.95 172.35 840.39 85.33 768C44.35 733.91 15.24 749.71 0 704C-27.43 621.71 0 608 0 512C0 436.15 -46.98 398.05 0 360.3C81.02 295.19 133.97 346.07 256 306.29C293.97 293.92 320 281.14 320 256C320 230.86 280.02 237.97 256 205.71" stroke="rgba(255, 255, 255, 1)" stroke-width="2"></path><path d="M1280 158.48C1221.35 158.48 1179.15 51.56 1179.15 0C1179.15 -27.68 1229.57 0 1280 0C1357.39 0 1434.79 -32.59 1434.79 0C1434.79 46.65 1349.17 158.48 1280 158.48" stroke="rgba(255, 255, 255, 1)" stroke-width="2"></path><path d="M1792 107.79C1739.01 107.79 1667.88 30.71 1667.88 0C1667.88 -23.19 1729.94 0 1792 0C1823.03 0 1854.06 -17.94 1854.06 0C1854.06 35.95 1832.1 107.79 1792 107.79" stroke="rgba(255, 255, 255, 1)" stroke-width="2"></path><path d="M1757.87 1024C1757.87 1016.89 1778.26 998.4 1792 998.4C1801.02 998.4 1803.38 1014.9 1803.38 1024C1803.38 1027.7 1797.69 1024 1792 1024C1774.93 1024 1757.87 1029.69 1757.87 1024" stroke="rgba(255, 255, 255, 1)" stroke-width="2"></path><path d="M256 91.43C217.84 54.66 199.74 30 199.74 0C199.74 -15.72 227.87 0 256 0C384 0 384 0 512 0C538.66 0 561.87 -22.04 565.33 0C581.95 105.96 504.58 150.57 552.16 256C605.92 375.13 643.57 409.41 768 449.12C879.49 484.7 904.47 388.44 1024 406.59C1111.53 419.88 1116.42 446.12 1182.12 512C1244.42 574.46 1238.39 584.05 1280 663.27C1305.62 712.05 1316.57 719.42 1316.57 768C1316.57 791.64 1305.23 807.72 1280 807.72C1158.94 807.72 1152 787.86 1024 768C1024 768 1024 768 1024 768C896 683.7 906.85 655.1 768 599.41C650.85 552.42 623.14 524.37 512 562.64C378.34 608.66 391.96 662.45 278.4 768C263.96 781.42 269.25 800.58 256 800.58C239.39 800.58 238.31 783.08 218.67 768C110.31 684.79 81.8 699.77 0 604C-27.53 571.77 0 558 0 512C0 475.65 -28.25 449.4 0 439.31C99.75 403.68 141.79 465.55 256 420.57C374.52 373.89 465.45 338.28 465.45 256C465.45 173.72 350.69 182.66 256 91.43" stroke="rgba(255, 255, 255, 1)" stroke-width="2"></path><path d="M1280 6.1C1277.74 6.1 1276.12 1.98 1276.12 0C1276.12 -1.07 1278.06 0 1280 0C1282.97 0 1285.95 -1.25 1285.95 0C1285.95 1.8 1282.66 6.1 1280 6.1" stroke="rgba(255, 255, 255, 1)" stroke-width="2"></path><path d="M1592.89 512C1592.89 481.68 1702.71 453.25 1792 453.25C1822.86 453.25 1833.2 482.3 1833.2 512C1833.2 543.12 1823.81 574.88 1792 574.88C1703.65 574.88 1592.89 542.5 1592.89 512" stroke="rgba(255, 255, 255, 1)" stroke-width="2"></path></g><defs><mask id="SvgjsMask1011"><rect width="1920" height="1024" fill="#ffffff"></rect></mask></defs></svg>