<svg width="298" height="298" viewBox="0 0 298 298" fill="none" xmlns="http://www.w3.org/2000/svg">
<rect width="298" height="298" rx="149" fill="#263238"/>
<path d="M39.8367 181.015L96.6282 81.9372C101.004 74.3025 105.923 69.2071 111.384 66.651C116.845 64.0949 122.295 63.3001 127.735 64.2666C133.241 65.1174 138.25 66.8357 142.761 69.4217C146.925 71.8087 152.04 74.8172 158.105 78.4471C164.285 82.1433 170.746 86.1542 177.488 90.4796C184.411 94.7556 190.913 99.0973 196.993 103.505L184.66 125.02L136.249 97.2712C132.663 95.2157 129.381 94.6408 126.403 95.5464C123.607 96.4026 121.347 98.3345 119.623 101.342L106.992 123.379L157.036 153.908L145.399 174.21L93.7636 146.456L65.5171 195.735L39.8367 181.015Z" fill="#26c6da"/>
<path d="M204.174 133.209C201.744 131.816 201.193 129.963 202.519 127.65L212.266 110.645C213.659 108.216 215.569 107.698 217.999 109.09L237.779 120.429C239.977 121.688 240.38 123.533 238.988 125.962L229.241 142.967C227.914 145.28 226.152 145.807 223.955 144.547L204.174 133.209ZM139.783 238.304L193.193 145.126L218.873 159.846L165.464 253.024L139.783 238.304Z" fill="white"/>
</svg>